<svg xmlns="http://www.w3.org/2000/svg" width="512" height="512" fill="none" viewBox="0 0 512 512"><style>@media (prefers-color-scheme:dark){path,rect{fill:#fafafa}}@media (prefers-color-scheme:light){path,rect{fill:#0a0a0a}}</style><rect width="31.289" height="402.489" x="240.156" y="109.511" fill="#fafafa"/><rect width="31.289" height="142.222" x="149.133" y="172.88" fill="#fafafa" transform="rotate(-45 149.133 172.88)"/><rect width="31.289" height="142.222" x="340.722" y="227.556" fill="#fafafa" transform="rotate(45 340.722 227.556)"/><path fill="#fafafa" d="M255.8 0C368.908 0 460.6 92.3308 460.6 206.227C460.6 308.412 386.794 393.237 289.934 409.601V381.103C370.996 365.094 432.155 293.163 432.155 206.846C432.155 108.769 353.198 29.2617 255.8 29.2617C158.402 29.2618 79.4445 108.769 79.4443 206.846C79.4443 293.164 140.604 365.095 221.667 381.104V409.601C124.806 393.237 51 308.412 51 206.227C51.0001 92.3308 142.692 0.000107981 255.8 0Z"/></svg>