<svg width="512" height="512" viewBox="0 0 512 512" fill="none" xmlns="http://www.w3.org/2000/svg">
  <style>
    @media (prefers-color-scheme: dark) {
        rect, path {
        fill: #fafafa;
        }
    }
    @media (prefers-color-scheme: light) {
        rect, path {
        fill: #0a0a0a;
        }
    }
  </style>
  <rect x="240.156" y="109.511" width="31.2889" height="402.489" fill="#fafafa"/>
  <rect x="149.133" y="172.88" width="31.2889" height="142.222" transform="rotate(-45 149.133 172.88)" fill="#fafafa"/>
  <rect x="340.722" y="227.556" width="31.2889" height="142.222" transform="rotate(45 340.722 227.556)" fill="#fafafa"/>
  <path d="M255.8 0C368.908 0 460.6 92.3308 460.6 206.227C460.6 308.412 386.794 393.237 289.934 409.601V381.103C370.996 365.094 432.155 293.163 432.155 206.846C432.155 108.769 353.198 29.2617 255.8 29.2617C158.402 29.2618 79.4445 108.769 79.4443 206.846C79.4443 293.164 140.604 365.095 221.667 381.104V409.601C124.806 393.237 51 308.412 51 206.227C51.0001 92.3308 142.692 0.000107981 255.8 0Z" fill="#fafafa"/>
</svg>
