<svg width="1451" height="512" viewBox="0 0 1451 512" fill="none" xmlns="http://www.w3.org/2000/svg">
<rect width="1451" height="512" fill="#020420"/>
<rect x="245" y="153" width="22" height="283" rx="11" fill="#86EFAC"/>
<rect x="181" y="197.556" width="22" height="100" rx="11" transform="rotate(-45 181 197.556)" fill="#86EFAC"/>
<rect x="315.711" y="236" width="22" height="100" rx="11" transform="rotate(45 315.711 236)" fill="#86EFAC"/>
<path fill-rule="evenodd" clip-rule="evenodd" d="M256 372C335.529 372 400 305.738 400 224C400 142.262 335.529 76 256 76C176.471 76 112 142.262 112 224C112 305.738 176.471 372 256 372ZM256 351.889C324.483 351.889 380 294.83 380 224.444C380 154.059 324.483 97 256 97C187.517 97 132 154.059 132 224.444C132 294.83 187.517 351.889 256 351.889Z" fill="#86EFAC"/>
<path d="M651.864 209.364C650.773 200.152 646.348 193 638.591 187.909C630.833 182.818 621.318 180.273 610.045 180.273C601.803 180.273 594.591 181.606 588.409 184.273C582.288 186.939 577.5 190.606 574.045 195.273C570.652 199.939 568.955 205.242 568.955 211.182C568.955 216.152 570.136 220.424 572.5 224C574.924 227.515 578.015 230.455 581.773 232.818C585.53 235.121 589.47 237.03 593.591 238.545C597.712 240 601.5 241.182 604.955 242.091L623.864 247.182C628.712 248.455 634.106 250.212 640.045 252.455C646.045 254.697 651.773 257.758 657.227 261.636C662.742 265.455 667.288 270.364 670.864 276.364C674.439 282.364 676.227 289.727 676.227 298.455C676.227 308.515 673.591 317.606 668.318 325.727C663.106 333.848 655.47 340.303 645.409 345.091C635.409 349.879 623.258 352.273 608.955 352.273C595.621 352.273 584.076 350.121 574.318 345.818C564.621 341.515 556.985 335.515 551.409 327.818C545.894 320.121 542.773 311.182 542.045 301H565.318C565.924 308.03 568.288 313.848 572.409 318.455C576.591 323 581.864 326.394 588.227 328.636C594.652 330.818 601.561 331.909 608.955 331.909C617.561 331.909 625.288 330.515 632.136 327.727C638.985 324.879 644.409 320.939 648.409 315.909C652.409 310.818 654.409 304.879 654.409 298.091C654.409 291.909 652.682 286.879 649.227 283C645.773 279.121 641.227 275.97 635.591 273.545C629.955 271.121 623.864 269 617.318 267.182L594.409 260.636C579.864 256.455 568.348 250.485 559.864 242.727C551.379 234.97 547.136 224.818 547.136 212.273C547.136 201.848 549.955 192.758 555.591 185C561.288 177.182 568.924 171.121 578.5 166.818C588.136 162.455 598.894 160.273 610.773 160.273C622.773 160.273 633.439 162.424 642.773 166.727C652.106 170.97 659.5 176.788 664.955 184.182C670.47 191.576 673.379 199.97 673.682 209.364H651.864ZM731.841 265V349H710.386V162.818H731.841V231.182H733.659C736.932 223.97 741.841 218.242 748.386 214C754.992 209.697 763.78 207.545 774.75 207.545C784.265 207.545 792.598 209.455 799.75 213.273C806.902 217.03 812.447 222.818 816.386 230.636C820.386 238.394 822.386 248.273 822.386 260.273V349H800.932V261.727C800.932 250.636 798.053 242.061 792.295 236C786.598 229.879 778.689 226.818 768.568 226.818C761.538 226.818 755.235 228.303 749.659 231.273C744.144 234.242 739.78 238.576 736.568 244.273C733.417 249.97 731.841 256.879 731.841 265ZM902.727 352.273C893.879 352.273 885.848 350.606 878.636 347.273C871.424 343.879 865.697 339 861.455 332.636C857.212 326.212 855.091 318.455 855.091 309.364C855.091 301.364 856.667 294.879 859.818 289.909C862.97 284.879 867.182 280.939 872.455 278.091C877.727 275.242 883.545 273.121 889.909 271.727C896.333 270.273 902.788 269.121 909.273 268.273C917.758 267.182 924.636 266.364 929.909 265.818C935.242 265.212 939.121 264.212 941.545 262.818C944.03 261.424 945.273 259 945.273 255.545V254.818C945.273 245.848 942.818 238.879 937.909 233.909C933.061 228.939 925.697 226.455 915.818 226.455C905.576 226.455 897.545 228.697 891.727 233.182C885.909 237.667 881.818 242.455 879.455 247.545L859.091 240.273C862.727 231.788 867.576 225.182 873.636 220.455C879.758 215.667 886.424 212.333 893.636 210.455C900.909 208.515 908.061 207.545 915.091 207.545C919.576 207.545 924.727 208.091 930.545 209.182C936.424 210.212 942.091 212.364 947.545 215.636C953.061 218.909 957.636 223.848 961.273 230.455C964.909 237.061 966.727 245.909 966.727 257V349H945.273V330.091H944.182C942.727 333.121 940.303 336.364 936.909 339.818C933.515 343.273 929 346.212 923.364 348.636C917.727 351.061 910.848 352.273 902.727 352.273ZM906 333C914.485 333 921.636 331.333 927.455 328C933.333 324.667 937.758 320.364 940.727 315.091C943.758 309.818 945.273 304.273 945.273 298.455V278.818C944.364 279.909 942.364 280.909 939.273 281.818C936.242 282.667 932.727 283.424 928.727 284.091C924.788 284.697 920.939 285.242 917.182 285.727C913.485 286.152 910.485 286.515 908.182 286.818C902.606 287.545 897.394 288.727 892.545 290.364C887.758 291.939 883.879 294.333 880.909 297.545C878 300.697 876.545 305 876.545 310.455C876.545 317.909 879.303 323.545 884.818 327.364C890.394 331.121 897.455 333 906 333ZM1025.89 298.091L1025.52 271.545H1029.89L1090.98 209.364H1117.52L1052.43 275.182H1050.61L1025.89 298.091ZM1005.89 349V162.818H1027.34V349H1005.89ZM1094.61 349L1040.07 279.909L1055.34 265L1121.89 349H1094.61ZM1196.11 351.909C1183.51 351.909 1172.45 348.909 1162.93 342.909C1153.48 336.909 1146.08 328.515 1140.75 317.727C1135.48 306.939 1132.84 294.333 1132.84 279.909C1132.84 265.364 1135.48 252.667 1140.75 241.818C1146.08 230.97 1153.48 222.545 1162.93 216.545C1172.45 210.545 1183.51 207.545 1196.11 207.545C1208.72 207.545 1219.75 210.545 1229.2 216.545C1238.72 222.545 1246.11 230.97 1251.39 241.818C1256.72 252.667 1259.39 265.364 1259.39 279.909C1259.39 294.333 1256.72 306.939 1251.39 317.727C1246.11 328.515 1238.72 336.909 1229.2 342.909C1219.75 348.909 1208.72 351.909 1196.11 351.909ZM1196.11 332.636C1205.69 332.636 1213.57 330.182 1219.75 325.273C1225.93 320.364 1230.51 313.909 1233.48 305.909C1236.45 297.909 1237.93 289.242 1237.93 279.909C1237.93 270.576 1236.45 261.879 1233.48 253.818C1230.51 245.758 1225.93 239.242 1219.75 234.273C1213.57 229.303 1205.69 226.818 1196.11 226.818C1186.54 226.818 1178.66 229.303 1172.48 234.273C1166.3 239.242 1161.72 245.758 1158.75 253.818C1155.78 261.879 1154.3 270.576 1154.3 279.909C1154.3 289.242 1155.78 297.909 1158.75 305.909C1161.72 313.909 1166.3 320.364 1172.48 325.273C1178.66 330.182 1186.54 332.636 1196.11 332.636ZM1238.66 162.818V181H1153.57V162.818H1238.66Z" fill="white"/>
</svg>
